# xmcd
#
# Track frame offsets:
# 150
# 19480
# 32463
# 49912
# 66210
# 81173
# 102677
# 126928
# 153768
# 186258
# 202420
#
# Disc length: 3007 seconds
#
#
# Revision: 0
# Processed by: cddbd v1.5.2PL0 Copyright (c) Steve Scherf et al.
# Submitted via: FreeRIP 2.944 
#
DISCID=9f0bbd0b
DTITLE=Alex Miksch - Straße des Hundes
DYEAR=2009
DGENRE=Blues
TTITLE0=A Gegend wia a Kölla
TTITLE1=Da Himme sperrd zua
TTITLE2=Esl Boogie
TTITLE3=Da schwoaze Geiga
TTITLE4=Lady Banane
TTITLE5=Ana vo eich
TTITLE6=Nua weus laud is
TTITLE7=A schleichenda Prozess
TTITLE8=Hinta robnschwoaze Hoa
TTITLE9=A oide Leitung
TTITLE10=Wan i geh
EXTD=
EXTT0=
EXTT1=
EXTT2=
EXTT3=
EXTT4=
EXTT5=
EXTT6=
EXTT7=
EXTT8=
EXTT9=
EXTT10=
PLAYORDER=
